#N canvas 668 24 1920 976 12;
#X text 177 277 creation arguments are OSC address;
#X text 179 238 set message to change OSC address;
#X text 164 48 1 Set IP Address : network address;
#X text 164 68 2 Set Ports (sending and listening);
#X text 164 87 3 Set OSC Addresses (routing osc data;
#X text 155 26 Key Settings;
#X floatatom 43 194 5 0 0 0 - - - 0;
#N canvas 1099 23 623 462 oscReceive 0;
#X obj 55 184 netreceive -u -b;
#X msg 78 143 listen 0;
#X text 152 143 stop listening;
#X text 64 58 packets from network;
#X text 173 177 UDP packets \, binary output, f 13;
#X obj 45 314 print;
#X obj 45 272 oscparse;
#X text 150 114 listen on port 8000;
#X obj 177 269 oscparse;
#X obj 177 293 list trim;
#X floatatom 140 380 5 0 0 0 - - - 0;
#X text 241 267 Parse the OSC message;
#X obj 177 319 route unity;
#X msg 66 115 listen 8000;
#X obj 66 84 loadbang;
#X floatatom 244 382 5 0 0 0 - - - 0;
#X floatatom 339 382 5 0 0 0 - - - 0;
#X obj 139 357 route test1;
#X obj 243 359 route test2;
#X obj 338 359 route test3;
#X obj 140 407 s val1;
#X obj 244 409 s val2;
#X obj 339 409 s val3;
#X connect 0 0 6 0;
#X connect 0 0 8 0;
#X connect 1 0 0 0;
#X connect 6 0 5 0;
#X connect 8 0 9 0;
#X connect 9 0 12 0;
#X connect 10 0 20 0;
#X connect 12 0 17 0;
#X connect 12 0 18 0;
#X connect 12 0 19 0;
#X connect 13 0 0 0;
#X connect 14 0 13 0;
#X connect 15 0 21 0;
#X connect 16 0 22 0;
#X connect 17 0 10 0;
#X connect 18 0 15 0;
#X connect 19 0 16 0;
#X restore 47 142 pd oscReceive;
#X obj 47 36 tgl 15 0 empty empty empty 17 7 0 10 #fcfcfc #000000 #000000 0 1;
#X msg 47 61 \; pd dsp \$1;
#X obj 44 278 oscformat PD message;
#X msg 76 239 set PD message;
#N canvas 727 97 450 300 oscSend 0;
#X msg 158 207 disconnect;
#X obj 61 253 netsend -u -b;
#X obj 59 55 list prepend send;
#X obj 59 80 list trim;
#X msg 150 175 connect 127.0.0.1 8001;
#X obj 59 29 r oscOut;
#X text 301 163 send to port 8001;
#X msg 147 148 connect localhost 8001;
#X obj 147 108 loadbang;
#X connect 0 0 1 0;
#X connect 2 0 3 0;
#X connect 3 0 1 0;
#X connect 4 0 1 0;
#X connect 5 0 2 0;
#X connect 7 0 1 0;
#X connect 8 0 7 0;
#X restore 47 118 pd oscSend;
#X obj 44 313 s oscOut;
#X obj 1389 965 *~;
#X obj 1380 1010 dac~;
#X obj 497 157 *~;
#X obj 488 202 dac~;
#X obj 561 125 vline~;
#X obj 497 93 noise~;
#X obj 560 33 bng 15 250 50 0 empty empty empty 17 7 0 10 #fcfcfc #000000 #000000;
#X obj 554 -5 r oscwall;
#X msg 561 73 1 25 \, 0 1000 75;
#X text 475 -32 Trigger noise burst;
#X obj 644 480 phasor~;
#X floatatom 626 379 5 0 0 0 - - - 0;
#X obj 659 739 *~;
#X obj 650 776 dac~;
#X obj 719 479 phasor~;
#X obj 718 440 * -1;
#X obj 655 621 +~;
#X msg 737 386 0;
#X obj 767 339 bng 15 250 50 0 empty empty empty 17 7 0 10 #fcfcfc #000000 #000000;
#X obj 724 505 *~ 2;
#X obj 644 513 *~ 2;
#X obj 644 540 -~ 1;
#X obj 723 533 -~ 1;
#X obj 646 572 clip~ 0 1;
#X obj 723 564 clip~ 0 1;
#X obj 706 612 vsl 15 128 0 1 0 0 empty empty empty 0 -9 0 10 #fcfcfc #000000 #000000 0 1;
#X text 637 339 Triangle_Wave;
#X obj 1176 1009 dac~;
#X obj 1397 763 vsl 19 162 0 1 0 0 empty empty empty 0 -9 0 12 #fcfcfc #000000 #000000 0 1;
#X obj 1185 964 *~;
#X obj 983 458 tgl 19 0 empty empty empty 0 -10 0 12 #fcfcfc #000000 #000000 0 1;
#X floatatom 1287 959 5 0 1 0 - - - 0;
#X floatatom 1087 499 5 0 0 0 - - - 0;
#X obj 987 582 f;
#X obj 1238 764 vline~;
#X obj 1229 934 *~;
#X obj 1161 842 osc~;
#X floatatom 1078 796 5 0 0 0 - - - 0;
#X obj 986 672 select 0 1 2 3;
#X obj 1138 469 hsl 162 19 0 1000 0 0 empty empty empty -2 -10 0 12 #fcfcfc #000000 #000000 0 1;
#X obj 1169 550 hsl 162 19 0.5 4.5 0 0 empty empty empty -2 -10 0 12 #fcfcfc #000000 #000000 0 1;
#X floatatom 1092 576 5 0 0 0 - - - 0;
#X obj 1049 587 + 1;
#X msg 969 752 500;
#X obj 1021 615 mod 5;
#X msg 929 759 400;
#X msg 1006 748 600;
#X msg 1045 744 700;
#X msg 1088 747 800;
#X obj 1010 534 metro 4000;
#X text 1164 574 Horizontal Slider to change the value that is being added to the metronome float \; range: 0.5 - 4.5;
#X text 1183 492 Horizontal Slider to increase the time \; range: 0 - 1000;
#X text 1333 940 Volume Slider;
#X text 822 459 Start/stop metronome;
#X text 813 636 Modulo operation with 5 possible options for the selector;
#X text 1265 736 vline for automation;
#X msg 1240 707 1 50 \, 0 50 \, 1;
#X text 1048 435 Sequence Playback? (Isa);
#X obj 1387 104 * -1;
#X obj 1411 -5 bng 15 250 50 0 empty wave1 empty 17 7 0 10 #fcfcfc #000000 #000000;
#X obj 1331 198 +~;
#X obj 1342 231 -~ 1;
#X obj 1276 155 phasor~;
#X msg 1311 110 0;
#X obj 1458 -8 bng 15 250 50 0 empty wave2 empty 17 7 0 10 #fcfcfc #000000 #000000;
#X obj 1508 -10 bng 15 250 50 0 empty wave3 empty 17 7 0 10 #fcfcfc #000000 #000000;
#X msg 1415 52 0.5;
#X obj 1384 151 phasor~;
#X msg 1493 53 0.875;
#X msg 1449 51 0.75;
#X obj 1272 51 * 1;
#X obj 1398 -53 loadbang;
#X obj 1344 417 *~;
#X obj 1335 462 dac~;
#X floatatom 1267 -111 5 0 0 0 - - - 0;
#X obj 1389 279 vsl 15 128 0 1 0 0 empty empty empty 0 -9 0 10 #fcfcfc #000000 #000000 0 1;
#X text 1303 -111 Frequency;
#X text 1357 -27 Change Duty Cycle to adjust timbre;
#X obj 1710 106 * -1;
#X obj 1734 -3 bng 15 250 50 0 empty wave1 empty 17 7 0 10 #fcfcfc #000000 #000000;
#X obj 1654 200 +~;
#X obj 1665 233 -~ 1;
#X obj 1599 157 phasor~;
#X msg 1634 112 0;
#X obj 1781 -6 bng 15 250 50 0 empty wave2 empty 17 7 0 10 #fcfcfc #000000 #000000;
#X obj 1831 -8 bng 15 250 50 0 empty wave3 empty 17 7 0 10 #fcfcfc #000000 #000000;
#X msg 1738 54 0.5;
#X obj 1707 153 phasor~;
#X msg 1816 55 0.875;
#X msg 1772 53 0.75;
#X obj 1595 53 * 1;
#X obj 1721 -51 loadbang;
#X obj 1667 419 *~;
#X obj 1658 464 dac~;
#X floatatom 1590 -109 5 0 0 0 - - - 0;
#X obj 1712 281 vsl 15 128 0 1 0 0 empty empty empty 0 -9 0 10 #fcfcfc #000000 #000000 0 1;
#X text 1626 -109 Frequency;
#X text 1852 -8 Change Duty Cycle to adjust timbre;
#X obj 717 -25 vsl 19 162 0 1 0 0 empty empty empty 0 -9 0 12 #fcfcfc #000000 #000000 0 1;
#X floatatom 673 146 5 0 0 0 - - - 0;
#X obj 641 181 *~;
#X connect 6 0 10 0;
#X connect 8 0 9 0;
#X connect 10 0 13 0;
#X connect 11 0 10 0;
#X connect 14 0 15 0;
#X connect 14 0 15 1;
#X connect 16 0 17 0;
#X connect 16 0 17 1;
#X connect 18 0 114 0;
#X connect 19 0 16 0;
#X connect 20 0 22 0;
#X connect 21 0 20 0;
#X connect 22 0 18 0;
#X connect 24 0 34 0;
#X connect 25 0 24 0;
#X connect 25 0 29 0;
#X connect 26 0 27 0;
#X connect 26 0 27 1;
#X connect 28 0 33 0;
#X connect 29 0 28 0;
#X connect 30 0 26 0;
#X connect 31 0 24 1;
#X connect 31 0 28 1;
#X connect 32 0 31 0;
#X connect 33 0 36 0;
#X connect 34 0 35 0;
#X connect 35 0 37 0;
#X connect 36 0 38 0;
#X connect 37 0 30 0;
#X connect 38 0 30 1;
#X connect 39 0 26 1;
#X connect 42 0 45 0;
#X connect 43 0 41 0;
#X connect 43 0 41 1;
#X connect 44 0 63 0;
#X connect 45 0 49 1;
#X connect 46 0 63 1;
#X connect 47 0 56 0;
#X connect 47 0 58 0;
#X connect 48 0 49 0;
#X connect 49 0 43 1;
#X connect 50 0 43 0;
#X connect 51 0 50 0;
#X connect 52 0 59 0;
#X connect 52 1 57 0;
#X connect 52 2 60 0;
#X connect 52 3 61 0;
#X connect 52 4 62 0;
#X connect 53 0 46 0;
#X connect 54 0 55 0;
#X connect 55 0 56 1;
#X connect 56 0 47 1;
#X connect 57 0 51 0;
#X connect 58 0 52 0;
#X connect 58 0 70 0;
#X connect 59 0 51 0;
#X connect 60 0 51 0;
#X connect 61 0 51 0;
#X connect 62 0 51 0;
#X connect 63 0 47 0;
#X connect 70 0 48 0;
#X connect 72 0 81 0;
#X connect 73 0 77 0;
#X connect 73 0 80 0;
#X connect 74 0 75 0;
#X connect 75 0 86 0;
#X connect 76 0 74 0;
#X connect 77 0 76 1;
#X connect 78 0 83 0;
#X connect 78 0 77 0;
#X connect 79 0 82 0;
#X connect 79 0 77 0;
#X connect 80 0 81 1;
#X connect 81 0 74 1;
#X connect 82 0 81 1;
#X connect 83 0 81 1;
#X connect 84 0 76 0;
#X connect 84 0 72 0;
#X connect 85 0 73 0;
#X connect 86 0 87 0;
#X connect 86 0 87 1;
#X connect 88 0 84 0;
#X connect 89 0 86 1;
#X connect 92 0 101 0;
#X connect 93 0 97 0;
#X connect 93 0 100 0;
#X connect 94 0 95 0;
#X connect 95 0 106 0;
#X connect 96 0 94 0;
#X connect 97 0 96 1;
#X connect 98 0 103 0;
#X connect 98 0 97 0;
#X connect 99 0 102 0;
#X connect 99 0 97 0;
#X connect 100 0 101 1;
#X connect 101 0 94 1;
#X connect 102 0 101 1;
#X connect 103 0 101 1;
#X connect 104 0 96 0;
#X connect 104 0 92 0;
#X connect 105 0 93 0;
#X connect 106 0 107 0;
#X connect 106 0 107 1;
#X connect 108 0 104 0;
#X connect 109 0 106 1;
#X connect 112 0 113 0;
#X connect 113 0 114 1;
#X connect 114 0 16 1;
