#N canvas 187 -12 1920 976 12;
#X text 177 277 creation arguments are OSC address;
#X text 179 238 set message to change OSC address;
#X text 164 48 1 Set IP Address : network address;
#X text 164 68 2 Set Ports (sending and listening);
#X text 164 87 3 Set OSC Addresses (routing osc data;
#X text 155 26 Key Settings;
#X floatatom 43 194 5 0 0 0 - - - 0;
#N canvas 1099 23 623 462 oscReceive 0;
#X obj 55 184 netreceive -u -b;
#X msg 78 143 listen 0;
#X text 152 143 stop listening;
#X text 64 58 packets from network;
#X text 173 177 UDP packets \, binary output, f 13;
#X obj 45 314 print;
#X obj 45 272 oscparse;
#X text 150 114 listen on port 8000;
#X obj 177 269 oscparse;
#X obj 177 293 list trim;
#X floatatom 140 380 5 0 0 0 - - - 0;
#X text 241 267 Parse the OSC message;
#X obj 177 319 route unity;
#X msg 66 115 listen 8000;
#X obj 66 84 loadbang;
#X floatatom 244 382 5 0 0 0 - - - 0;
#X floatatom 339 382 5 0 0 0 - - - 0;
#X obj 139 357 route test1;
#X obj 243 359 route test2;
#X obj 338 359 route test3;
#X obj 140 407 s val1;
#X obj 244 409 s val2;
#X obj 339 409 s val3;
#X connect 0 0 6 0;
#X connect 0 0 8 0;
#X connect 1 0 0 0;
#X connect 6 0 5 0;
#X connect 8 0 9 0;
#X connect 9 0 12 0;
#X connect 10 0 20 0;
#X connect 12 0 17 0;
#X connect 12 0 18 0;
#X connect 12 0 19 0;
#X connect 13 0 0 0;
#X connect 14 0 13 0;
#X connect 15 0 21 0;
#X connect 16 0 22 0;
#X connect 17 0 10 0;
#X connect 18 0 15 0;
#X connect 19 0 16 0;
#X restore 47 142 pd oscReceive;
#X obj 47 36 tgl 15 0 empty empty empty 17 7 0 10 #fcfcfc #000000 #000000 0 1;
#X msg 47 61 \; pd dsp \$1;
#X obj 44 278 oscformat PD message;
#X msg 76 239 set PD message;
#N canvas 727 97 450 300 oscSend 0;
#X msg 158 207 disconnect;
#X obj 61 253 netsend -u -b;
#X obj 59 55 list prepend send;
#X obj 59 80 list trim;
#X msg 150 175 connect 127.0.0.1 8001;
#X obj 59 29 r oscOut;
#X text 301 163 send to port 8001;
#X msg 147 148 connect localhost 8001;
#X obj 147 108 loadbang;
#X connect 0 0 1 0;
#X connect 2 0 3 0;
#X connect 3 0 1 0;
#X connect 4 0 1 0;
#X connect 5 0 2 0;
#X connect 7 0 1 0;
#X connect 8 0 7 0;
#X restore 47 118 pd oscSend;
#X obj 44 313 s oscOut;
#X obj 1389 965 *~;
#X obj 1380 1010 dac~;
#X obj 605 215 *~;
#X obj 596 260 dac~;
#X obj 669 183 vline~;
#X obj 605 151 noise~;
#X obj 668 91 bng 15 250 50 0 empty empty empty 17 7 0 10 #fcfcfc #000000 #000000;
#X obj 662 53 r oscwall;
#X msg 669 131 1 25 \, 0 1000 75;
#X text 583 26 Trigger noise burst;
#X obj 848 27 noise~;
#X obj 848 87 *~ 0.5;
#X obj 851 220 *~;
#X obj 912 261 line;
#X obj 915 36 bng 19 250 50 0 empty empty empty 0 -10 0 12 #fcfcfc #000000 #000000;
#X floatatom 911 307 5 0 0 0 - - - 0;
#X msg 914 86 1 1000;
#X obj 1025 73 delay 1000;
#X obj 1023 114 bng 19 250 50 0 empty empty empty 0 -10 0 12 #fcfcfc #000000 #000000;
#X msg 1023 158 0.5 1500;
#X obj 1146 168 bng 19 250 50 0 empty empty empty 0 -10 0 12 #fcfcfc #000000 #000000;
#X msg 1144 213 0 1000;
#X obj 841 266 dac~;
#X obj 1147 134 delay 2500;
#X text 940 35 Noise wave crashing sound;
#X connect 6 0 10 0;
#X connect 8 0 9 0;
#X connect 10 0 13 0;
#X connect 11 0 10 0;
#X connect 14 0 15 0;
#X connect 14 0 15 1;
#X connect 16 0 17 0;
#X connect 16 0 17 1;
#X connect 18 0 16 1;
#X connect 19 0 16 0;
#X connect 20 0 22 0;
#X connect 21 0 20 0;
#X connect 22 0 18 0;
#X connect 24 0 25 0;
#X connect 25 0 26 0;
#X connect 26 0 36 0;
#X connect 26 0 36 1;
#X connect 27 0 29 0;
#X connect 28 0 30 0;
#X connect 28 0 31 0;
#X connect 29 0 26 1;
#X connect 30 0 27 0;
#X connect 31 0 32 0;
#X connect 32 0 33 0;
#X connect 32 0 37 0;
#X connect 33 0 27 0;
#X connect 34 0 35 0;
#X connect 35 0 27 0;
#X connect 37 0 34 0;
